<svg xmlns="http://www.w3.org/2000/svg" viewBox="0 0 800 450" width="800" height="450">
  <defs>
    <linearGradient id="bg" x1="0" y1="0" x2="1" y2="1">
      <stop offset="0%" stop-color="#1a1a1a"/>
      <stop offset="100%" stop-color="#111111"/>
    </linearGradient>
  </defs>
  <rect width="800" height="450" fill="url(#bg)"/>
  <g>
    
    <polyline points="100,119.9 130,116.6 160,109.1 190,99.5 220,90.0 250,82.9 280,80.0 310,82.0 340,88.4 370,97.7 400,107.5 430,115.5 460,119.7 490,119.0 520,113.8 550,105.1 580,95.2 610,86.5 640,81.1 670,80.3 700,84.3" fill="none" stroke="#00ccff" stroke-width="2" opacity="0.20">
      <animate attributeName="points" values="100,119.9 130,116.6 160,109.1 190,99.5 220,90.0 250,82.9 280,80.0 310,82.0 340,88.4 370,97.7 400,107.5 430,115.5 460,119.7 490,119.0 520,113.8 550,105.1 580,95.2 610,86.5 640,81.1 670,80.3 700,84.3;100,99.4 130,87.5 160,78.6 190,75.0 220,77.5 250,85.5 280,97.1 310,109.4 340,119.3 370,124.6 400,123.8 430,117.2 460,106.4 490,94.0 520,83.1 550,76.3 580,75.4 610,80.4 640,90.3 670,102.5 700,114.1;100,119.9 130,116.6 160,109.1 190,99.5 220,90.0 250,82.9 280,80.0 310,82.0 340,88.4 370,97.7 400,107.5 430,115.5 460,119.7 490,119.0 520,113.8 550,105.1 580,95.2 610,86.5 640,81.1 670,80.3 700,84.3" dur="3.0s" repeatCount="indefinite" calcMode="spline" keySplines="0.4 0 0.6 1;0.4 0 0.6 1"/>
    </polyline>
    <polyline points="100,169.1 130,159.5 160,150.0 190,142.9 220,140.0 250,142.0 280,148.4 310,157.7 340,167.5 370,175.5 400,179.7 430,179.0 460,173.8 490,165.1 520,155.2 550,146.5 580,141.1 610,140.3 640,144.3 670,152.2 700,162.0" fill="none" stroke="#00ccff" stroke-width="2" opacity="0.28">
      <animate attributeName="points" values="100,169.1 130,159.5 160,150.0 190,142.9 220,140.0 250,142.0 280,148.4 310,157.7 340,167.5 370,175.5 400,179.7 430,179.0 460,173.8 490,165.1 520,155.2 550,146.5 580,141.1 610,140.3 640,144.3 670,152.2 700,162.0;100,138.6 130,135.0 160,137.5 190,145.5 220,157.1 250,169.4 280,179.3 310,184.6 340,183.8 370,177.2 400,166.4 430,154.0 460,143.1 490,136.3 520,135.4 550,140.4 580,150.3 610,162.5 640,174.1 670,182.3 700,185.0;100,169.1 130,159.5 160,150.0 190,142.9 220,140.0 250,142.0 280,148.4 310,157.7 340,167.5 370,175.5 400,179.7 430,179.0 460,173.8 490,165.1 520,155.2 550,146.5 580,141.1 610,140.3 640,144.3 670,152.2 700,162.0" dur="3.4s" repeatCount="indefinite" calcMode="spline" keySplines="0.4 0 0.6 1;0.4 0 0.6 1"/>
    </polyline>
    <polyline points="100,210.0 130,202.9 160,200.0 190,202.0 220,208.4 250,217.7 280,227.5 310,235.5 340,239.7 370,239.0 400,233.8 430,225.1 460,215.2 490,206.5 520,201.1 550,200.3 580,204.3 610,212.2 640,222.0 670,231.3 700,237.8" fill="none" stroke="#00ccff" stroke-width="2" opacity="0.36">
      <animate attributeName="points" values="100,210.0 130,202.9 160,200.0 190,202.0 220,208.4 250,217.7 280,227.5 310,235.5 340,239.7 370,239.0 400,233.8 430,225.1 460,215.2 490,206.5 520,201.1 550,200.3 580,204.3 610,212.2 640,222.0 670,231.3 700,237.8;100,197.5 130,205.5 160,217.1 190,229.4 220,239.3 250,244.6 280,243.8 310,237.2 340,226.4 370,214.0 400,203.1 430,196.3 460,195.4 490,200.4 520,210.3 550,222.5 580,234.1 610,242.3 640,245.0 670,241.6 700,232.9;100,210.0 130,202.9 160,200.0 190,202.0 220,208.4 250,217.7 280,227.5 310,235.5 340,239.7 370,239.0 400,233.8 430,225.1 460,215.2 490,206.5 520,201.1 550,200.3 580,204.3 610,212.2 640,222.0 670,231.3 700,237.8" dur="3.8s" repeatCount="indefinite" calcMode="spline" keySplines="0.4 0 0.6 1;0.4 0 0.6 1"/>
    </polyline>
    <polyline points="100,260.0 130,262.0 160,268.4 190,277.7 220,287.5 250,295.5 280,299.7 310,299.0 340,293.8 370,285.1 400,275.2 430,266.5 460,261.1 490,260.3 520,264.3 550,272.2 580,282.0 610,291.3 640,297.8 670,300.0 700,297.3" fill="none" stroke="#00ccff" stroke-width="2" opacity="0.44">
      <animate attributeName="points" values="100,260.0 130,262.0 160,268.4 190,277.7 220,287.5 250,295.5 280,299.7 310,299.0 340,293.8 370,285.1 400,275.2 430,266.5 460,261.1 490,260.3 520,264.3 550,272.2 580,282.0 610,291.3 640,297.8 670,300.0 700,297.3;100,277.1 130,289.4 160,299.3 190,304.6 220,303.8 250,297.2 280,286.4 310,274.0 340,263.1 370,256.3 400,255.4 430,260.4 460,270.3 490,282.5 520,294.1 550,302.3 580,305.0 610,301.6 640,292.9 670,281.0 700,268.9;100,260.0 130,262.0 160,268.4 190,277.7 220,287.5 250,295.5 280,299.7 310,299.0 340,293.8 370,285.1 400,275.2 430,266.5 460,261.1 490,260.3 520,264.3 550,272.2 580,282.0 610,291.3 640,297.8 670,300.0 700,297.3" dur="4.2s" repeatCount="indefinite" calcMode="spline" keySplines="0.4 0 0.6 1;0.4 0 0.6 1"/>
    </polyline>
    <polyline points="100,328.4 130,337.7 160,347.5 190,355.5 220,359.7 250,359.0 280,353.8 310,345.1 340,335.2 370,326.5 400,321.1 430,320.3 460,324.3 490,332.2 520,342.0 550,351.3 580,357.8 610,360.0 640,357.3 670,350.3 700,340.8" fill="none" stroke="#00ccff" stroke-width="2" opacity="0.52">
      <animate attributeName="points" values="100,328.4 130,337.7 160,347.5 190,355.5 220,359.7 250,359.0 280,353.8 310,345.1 340,335.2 370,326.5 400,321.1 430,320.3 460,324.3 490,332.2 520,342.0 550,351.3 580,357.8 610,360.0 640,357.3 670,350.3 700,340.8;100,359.3 130,364.6 160,363.8 190,357.2 220,346.4 250,334.0 280,323.1 310,316.3 340,315.4 370,320.4 400,330.3 430,342.5 460,354.1 490,362.3 520,365.0 550,361.6 580,352.9 610,341.0 640,328.9 670,319.5 700,315.2;100,328.4 130,337.7 160,347.5 190,355.5 220,359.7 250,359.0 280,353.8 310,345.1 340,335.2 370,326.5 400,321.1 430,320.3 460,324.3 490,332.2 520,342.0 550,351.3 580,357.8 610,360.0 640,357.3 670,350.3 700,340.8" dur="4.6s" repeatCount="indefinite" calcMode="spline" keySplines="0.4 0 0.6 1;0.4 0 0.6 1"/>
    </polyline>
  </g>
  <text x="400" y="420" fill="#00ccff" font-family="monospace" font-size="11" font-weight="500" text-anchor="middle" letter-spacing="3" opacity="0.4">AV SIMULATION</text>
</svg>